Coordinates
version=1
nRows=27
nColumns=38
inDegrees=no

Units are S.I. units (second, meters, Newtons, ...)
If the header above contains a line with 'inDegrees', this indicates whether rotational values are in degrees (yes) or radians (no).

endheader
time	pelvis_tilt	pelvis_list	pelvis_rotation	pelvis_tx	pelvis_ty	pelvis_tz	hip_flexion_r	hip_adduction_r	hip_rotation_r	knee_angle_r	ankle_angle_r	subtalar_angle_r	mtp_angle_r	hip_flexion_l	hip_adduction_l	hip_rotation_l	knee_angle_l	ankle_angle_l	subtalar_angle_l	mtp_angle_l	lumbar_extension	lumbar_bending	lumbar_rotation	arm_flex_r	arm_add_r	arm_rot_r	elbow_flex_r	pro_sup_r	wrist_flex_r	wrist_dev_r	arm_flex_l	arm_add_l	arm_rot_l	elbow_flex_l	pro_sup_l	wrist_flex_l	wrist_dev_l
0	-1.304	1.45831	-0.442047	0.76428	1.77922	0.949305	-0.0540703	0.16577	0.102721	0.207395	0.0582071	0	0	0.511522	-0.305776	-0.294452	0.864413	0.0439163	0	0	-0.19796	0.110447	0.0153135	-0.237036	-0.0710886	-0.521414	0.462838	1.04893	0	0	-0.178934	-0.310348	0.34136	0.712721	0.78545	0	0
0.01	-1.32255	1.4611	-0.424775	0.76478	1.77122	0.948603	-0.060429	0.161502	0.104531	0.207127	0.0655931	0	0	0.510718	-0.305184	-0.317846	0.809608	0.0457215	0	0	-0.197295	0.108714	0.0169288	-0.236853	-0.0701813	-0.518827	0.468738	1.04547	0	0	-0.175343	-0.312074	0.345352	0.707371	0.781836	0	0
0.02	-1.33916	1.4641	-0.409084	0.765282	1.76282	0.947845	-0.0675078	0.156698	0.105719	0.206653	0.0731098	0	0	0.507562	-0.30325	-0.343213	0.753083	0.04767	0	0	-0.196152	0.106474	0.0162348	-0.2358	-0.0691687	-0.516255	0.471967	1.0409	0	0	-0.174535	-0.313496	0.346497	0.703346	0.780624	0	0
0.03	-1.35608	1.46733	-0.393129	0.765856	1.75422	0.946994	-0.0744707	0.151525	0.107411	0.206653	0.080828	0	0	0.503122	-0.29975	-0.369381	0.695703	0.0499486	0	0	-0.194714	0.103953	0.0150954	-0.234999	-0.0680698	-0.513267	0.474659	1.03695	0	0	-0.174088	-0.314652	0.347558	0.699031	0.779735	0	0
0.04	-1.3855	1.47064	-0.36434	0.766554	1.74553	0.945922	-0.0796156	0.146851	0.109388	0.208018	0.0891351	0	0	0.499739	-0.295423	-0.395198	0.63941	0.0538568	0	0	-0.1918	0.101979	0.0132306	-0.234861	-0.0672462	-0.510224	0.478114	1.03311	0	0	-0.174254	-0.315413	0.348155	0.694416	0.779015	0	0
0.05	-1.40888	1.47519	-0.341519	0.76741	1.73679	0.944859	-0.0841086	0.140466	0.110847	0.211394	0.0986376	0	0	0.494149	-0.287651	-0.421112	0.581233	0.0580226	0	0	-0.189402	0.0985009	0.0115312	-0.233188	-0.0649512	-0.520374	0.480268	1.05134	0	0	-0.173298	-0.317116	0.353719	0.689341	0.767117	0	0
0.06	-1.4376	1.48062	-0.313145	0.768462	1.72802	0.943713	-0.086605	0.132977	0.110635	0.217304	0.109061	0	0	0.488074	-0.276425	-0.443569	0.521716	0.0627977	0	0	-0.186322	0.0942393	0.00912434	-0.232721	-0.0640311	-0.518879	0.483408	1.049	0	0	-0.172462	-0.317989	0.357058	0.682883	0.762559	0	0
0.07	-1.47395	1.48687	-0.277009	0.769636	1.71919	0.942482	-0.0875189	0.124464	0.109726	0.225142	0.12025	0	0	0.481453	-0.261657	-0.460259	0.460704	0.0684499	0	0	-0.182346	0.0891365	0.0063066	-0.231842	-0.0632371	-0.51718	0.485346	1.04657	0	0	-0.171345	-0.318582	0.360986	0.674993	0.759183	0	0
0.08	-1.51367	1.49498	-0.237929	0.770905	1.7103	0.941245	-0.0870176	0.113487	0.108192	0.235225	0.132628	0	0	0.472198	-0.241345	-0.467656	0.394755	0.0727202	0	0	-0.17784	0.0816175	0.00327952	-0.230212	-0.0627439	-0.514834	0.485424	1.04359	0	0	-0.170082	-0.319122	0.365269	0.666277	0.755937	0	0
0.09	-1.5565	1.50505	-0.196771	0.772219	1.70128	0.940047	-0.085618	0.0998612	0.10684	0.247323	0.146006	0	0	0.458337	-0.215077	-0.46138	0.320914	0.0730292	0	0	-0.172984	0.0713686	0.000968735	-0.22817	-0.0624753	-0.51179	0.48346	1.04032	0	0	-0.169015	-0.319722	0.369702	0.656925	0.751911	0	0
0.1	-1.61412	1.51543	-0.142216	0.773435	1.69211	0.938814	-0.0836366	0.0858414	0.107724	0.260681	0.159254	0	0	0.44079	-0.18699	-0.440905	0.24246	0.0678795	0	0	-0.167692	0.0601603	-0.000206153	-0.226211	-0.0625844	-0.50779	0.480894	1.03663	0	0	-0.169011	-0.320517	0.373806	0.648178	0.748155	0	0
0.11	-1.69023	1.52452	-0.0708204	0.774458	1.68277	0.937543	-0.0817982	0.0731422	0.110442	0.27482	0.171389	0	0	0.421077	-0.161883	-0.410616	0.166117	0.0580323	0	0	-0.162359	0.0496164	0.000130386	-0.224803	-0.0632379	-0.502433	0.478738	1.03164	0	0	-0.170137	-0.320922	0.376252	0.63947	0.74356	0	0
0.12	-1.82097	1.53261	0.0519316	0.775174	1.67323	0.936151	-0.0772544	0.0611716	0.1153	0.293218	0.184002	0	0	0.399975	-0.14076	-0.372881	0.0934449	0.0432236	0	0	-0.155323	0.0391841	0.00375372	-0.224389	-0.064687	-0.49533	0.476712	1.02441	0	0	-0.17145	-0.320152	0.378086	0.627697	0.738902	0	0
0.13	-2.01091	1.53561	0.234289	0.775684	1.66372	0.934521	-0.0721824	0.0544895	0.122189	0.310325	0.193319	0	0	0.396999	-0.134176	-0.35941	0.0656832	0.046377	0	0	-0.147095	0.0327988	0.00742279	-0.224636	-0.0661216	-0.490282	0.475659	1.01905	0	0	-0.174352	-0.319576	0.378185	0.618986	0.737607	0	0
0.14	-2.19621	1.53722	0.411934	0.77616	1.65417	0.93299	-0.0674389	0.0483365	0.127878	0.328884	0.202407	0	0	0.403381	-0.133212	-0.358792	0.0673874	0.0552851	0	0	-0.139697	0.0264626	0.0115422	-0.223887	-0.0665742	-0.493844	0.472545	1.02874	0	0	-0.177495	-0.319768	0.380259	0.61167	0.730624	0	0
0.15	-2.28916	1.53889	0.498257	0.776668	1.64447	0.931839	-0.0677395	0.0431308	0.132532	0.34529	0.208969	0	0	0.41485	-0.13698	-0.366798	0.0940241	0.0631309	0	0	-0.13638	0.0207836	0.0146771	-0.223672	-0.0673146	-0.494257	0.471276	1.03232	0	0	-0.181365	-0.32021	0.380008	0.606838	0.726404	0	0
0.16	-2.35822	1.53919	0.559821	0.776953	1.6347	0.930759	-0.067066	0.039674	0.139106	0.364112	0.214405	0	0	0.435891	-0.148597	-0.389158	0.147889	0.0711068	0	0	-0.133065	0.0162931	0.0192002	-0.224461	-0.0681359	-0.494273	0.47069	1.03615	0	0	-0.185152	-0.32062	0.380773	0.601752	0.720509	0	0
0.17	-2.45218	1.53897	0.644392	0.776845	1.62447	0.929876	-0.0652154	0.0362624	0.148548	0.383901	0.217629	0	0	0.458024	-0.163446	-0.414395	0.20987	0.0730238	0	0	-0.12842	0.00938985	0.0296912	-0.228625	-0.067128	-0.498017	0.469855	1.03957	0	0	-0.187205	-0.322268	0.385601	0.59567	0.713753	0	0
0.18	-2.38529	1.54044	0.564785	0.776762	1.61406	0.929223	-0.0677843	0.033865	0.160854	0.405719	0.219922	0	0	0.471087	-0.181322	-0.439584	0.271145	0.0737574	0	0	-0.127148	0.00775449	0.0373132	-0.231624	-0.0703248	-0.494057	0.471618	1.04216	0	0	-0.193461	-0.320397	0.385817	0.588583	0.704602	0	0
0.19	-2.36925	1.54163	0.535276	0.776505	1.60321	0.928763	-0.0684452	0.0308598	0.174218	0.428721	0.220013	0	0	0.478984	-0.196546	-0.46112	0.322795	0.0747676	0	0	-0.123676	0.00343972	0.0496597	-0.237402	-0.0717944	-0.492704	0.471191	1.0431	0	0	-0.198236	-0.319685	0.389301	0.581942	0.695728	0	0
0.2	-2.3506	1.54313	0.504114	0.77646	1.59217	0.928456	-0.0682075	0.027348	0.186254	0.453822	0.218572	0	0	0.481443	-0.20814	-0.477887	0.365027	0.0815986	0	0	-0.11977	-0.000818144	0.0609754	-0.243619	-0.073241	-0.4925	0.470401	1.04372	0	0	-0.20463	-0.319406	0.392585	0.578833	0.686887	0	0
0.21	-2.36289	1.54323	0.503678	0.776477	1.58098	0.928042	-0.0642893	0.0247772	0.199106	0.482834	0.21602	0	0	0.482611	-0.219742	-0.495731	0.403146	0.0960175	0	0	-0.113168	-0.00398156	0.0726944	-0.254783	-0.0768378	-0.474853	0.475719	1.00982	0	0	-0.212121	-0.321358	0.40586	0.580452	0.654704	0	0
0.22	-2.3637	1.54609	0.496386	0.777088	1.56938	0.927974	-0.0620008	0.018583	0.203273	0.511522	0.211225	0	0	0.476218	-0.221155	-0.502328	0.424912	0.10574	0	0	-0.108041	-0.00904242	0.0792605	-0.26225	-0.0774882	-0.479236	0.474712	1.0162	0	0	-0.220804	-0.321	0.406342	0.580433	0.649738	0	0
0.23	-2.41076	1.54845	0.536275	0.777876	1.55763	0.927841	-0.0561312	0.0121535	0.205783	0.544289	0.204148	0	0	0.469886	-0.221741	-0.512048	0.442978	0.111172	0	0	-0.101147	-0.0139954	0.0848297	-0.270339	-0.0777546	-0.484614	0.473621	1.02237	0	0	-0.230944	-0.320869	0.406034	0.582425	0.64442	0	0
0.24	-2.53112	1.55108	0.652024	0.779007	1.54576	0.927706	-0.0466628	0.00448738	0.204572	0.581352	0.193758	0	0	0.463483	-0.218794	-0.52057	0.455602	0.106119	0	0	-0.0931108	-0.0198656	0.0874329	-0.278556	-0.0774377	-0.491164	0.472447	1.02872	0	0	-0.241916	-0.321069	0.405003	0.585362	0.638321	0	0
0.25	-2.87003	1.55291	0.989339	0.780471	1.53391	0.927465	-0.0300589	-0.00564796	0.199127	0.625956	0.180382	0	0	0.459797	-0.210952	-0.525354	0.464704	0.0913562	0	0	-0.0823747	-0.0283231	0.0881412	-0.282862	-0.0721633	-0.530921	0.464739	1.09033	0	0	-0.252643	-0.327827	0.424486	0.597541	0.583701	0	0
0.26	2.91897	1.55341	1.48548	0.782226	1.52199	0.92726	-0.00376122	-0.0264403	0.164554	0.684384	0.164108	0	0	0.456299	-0.198861	-0.525577	0.473867	0.0758688	0	0	-0.0727229	-0.0396133	0.0835348	-0.2912	-0.0700112	-0.536571	0.463762	1.09396	0	0	-0.264621	-0.330774	0.422825	0.604315	0.579526	0	0
